<?xml version="1.0" encoding="iso-8859-1"?>
<!-- Uploaded to: SVG Repo, www.svgrepo.com, Generator: SVG Repo Mixer Tools -->
<svg fill="#000000" version="1.1" id="Layer_1" xmlns="http://www.w3.org/2000/svg" xmlns:xlink="http://www.w3.org/1999/xlink" 
	 viewBox="0 0 512 512" xml:space="preserve">
<g>
	<g>
		<g>
			<path d="M422.741,42.667h-60.07V32.491C362.671,14.543,348.128,0,330.18,0H181.828c-17.947,0-32.491,14.543-32.491,32.491v10.176
				H89.259c-25.734,0-46.592,20.858-46.592,46.592v376.149c0,25.734,20.858,46.592,46.592,46.592h333.483
				c25.734,0,46.592-20.858,46.592-46.592V89.259C469.333,63.525,448.475,42.667,422.741,42.667z M192.004,42.667H320v42.667
				H192.004V42.667z M426.667,465.408c0,2.17-1.755,3.925-3.925,3.925H89.259c-2.17,0-3.925-1.755-3.925-3.925V89.259
				c0-2.17,1.755-3.925,3.925-3.925h60.075v10.176c0,17.947,14.543,32.491,32.491,32.491h0.004h148.348h0.004
				c17.947,0,32.491-14.543,32.491-32.491V85.333h60.07c2.17,0,3.925,1.755,3.925,3.925V465.408z"/>
			<rect x="128" y="192" width="85.333" height="85.333"/>
			<rect x="128" y="341.333" width="85.333" height="85.333"/>
			<path d="M347.582,176.915l-48.915,48.915l-6.248-6.248c-8.331-8.331-21.839-8.331-30.17,0c-8.331,8.331-8.331,21.839,0,30.17
				l21.333,21.333c8.331,8.331,21.839,8.331,30.17,0l64-64c8.331-8.331,8.331-21.839,0-30.17
				C369.42,168.584,355.913,168.584,347.582,176.915z"/>
			<path d="M347.582,326.248l-48.915,48.915l-6.248-6.248c-8.331-8.331-21.839-8.331-30.17,0c-8.331,8.331-8.331,21.839,0,30.17
				l21.333,21.333c8.331,8.331,21.839,8.331,30.17,0l64-64c8.331-8.331,8.331-21.839,0-30.17
				C369.42,317.917,355.913,317.917,347.582,326.248z"/>
		</g>
	</g>
</g>
</svg>